<svg xmlns="http://www.w3.org/2000/svg" version="1.1" xmlns:xlink="http://www.w3.org/1999/xlink" width="40" height="40" x="0" y="0" viewBox="0 0 512 512" style="enable-background:new 0 0 512 512" xml:space="preserve" class=""><g><path d="M256 257.041 141.356 166h229.287zm0 27.323a11.97 11.97 0 0 1-7.462-2.603L118 178.1v161.15a6.758 6.758 0 0 0 6.75 6.75h262.5a6.758 6.758 0 0 0 6.75-6.75V178.099L263.462 281.762a11.98 11.98 0 0 1-7.462 2.602zM512 78.393v355.215C512 476.833 476.833 512 433.607 512H78.393C35.167 512 0 476.833 0 433.607V78.393C0 35.167 35.167 0 78.393 0h355.215C476.833 0 512 35.167 512 78.393zm-94 94.357c0-16.956-13.794-30.75-30.75-30.75h-262.5C107.794 142 94 155.794 94 172.75v166.5c0 16.956 13.794 30.75 30.75 30.75h262.5c16.956 0 30.75-13.794 30.75-30.75z" fill="#bfbfc2" opacity="1" data-original="#000000" class=""></path></g></svg>